<svg width="400" height="300" viewBox="0 0 400 300" fill="none" xmlns="http://www.w3.org/2000/svg">
  <rect width="400" height="300" fill="#F3F4F6"/>
  <g opacity="0.5">
    <path d="M200 120C188.954 120 180 128.954 180 140V160C180 171.046 188.954 180 200 180C211.046 180 220 171.046 220 160V140C220 128.954 211.046 120 200 120Z" fill="#9CA3AF"/>
    <path d="M160 140H140C133.373 140 128 145.373 128 152V168C128 174.627 133.373 180 140 180H160V140Z" fill="#9CA3AF"/>
    <path d="M240 140H260C266.627 140 272 145.373 272 152V168C272 174.627 266.627 180 260 180H240V140Z" fill="#9CA3AF"/>
    <circle cx="200" cy="200" r="8" fill="#9CA3AF"/>
  </g>
  <text x="200" y="230" text-anchor="middle" fill="#6B7280" font-family="system-ui" font-size="14" font-weight="500">Recipe Image</text>
</svg>